<?xml version="1.0" standalone="no"?>
<!DOCTYPE svg PUBLIC "-//W3C//DTD SVG 20010904//EN"
 "http://www.w3.org/TR/2001/REC-SVG-20010904/DTD/svg10.dtd">
<svg version="1.0" xmlns="http://www.w3.org/2000/svg"
 width="398.000000pt" height="398.000000pt" viewBox="0 0 398.000000 398.000000"
 preserveAspectRatio="xMidYMid meet">

<g transform="translate(0.000000,398.000000) scale(0.100000,-0.100000)"
fill="#000000" stroke="none">
<path d="M702 2859 c-29 -5 -68 -15 -87 -23 -24 -10 -35 -11 -38 -3 -2 7 -39
-8 -94 -36 -50 -26 -100 -47 -110 -47 -22 0 -58 -36 -98 -97 -15 -23 -32 -40
-39 -37 -7 3 -18 -18 -28 -53 -8 -32 -29 -87 -44 -123 -27 -61 -29 -73 -29
-196 1 -121 0 -131 -17 -126 -45 11 -92 -50 -103 -134 -15 -110 52 -293 115
-315 25 -9 28 -15 32 -72 3 -34 17 -90 31 -124 l25 -62 -29 -5 c-16 -3 -42 -9
-59 -12 -37 -7 -60 -38 -60 -81 0 -31 -2 -33 -35 -33 -28 0 -35 -4 -35 -20 0
-16 7 -20 30 -20 17 0 30 -5 30 -11 0 -17 53 -61 188 -156 105 -74 121 -89
116 -107 -18 -59 -59 -134 -124 -231 -78 -116 -109 -177 -110 -212 0 -39 17
-25 44 33 14 30 55 98 91 150 62 88 125 205 125 231 0 22 19 24 47 6 l28 -18
-25 35 c-14 19 -25 49 -25 65 0 23 -5 31 -22 33 -16 2 -23 -2 -23 -13 0 -11
-23 0 -83 41 -180 125 -217 160 -187 179 6 3 10 22 10 41 0 30 4 37 35 50 19
7 51 14 72 13 l38 -1 -31 -7 c-74 -18 -72 -42 8 -117 144 -136 207 -202 227
-242 l21 -41 52 35 c48 31 168 75 331 119 64 17 78 36 52 65 -15 17 -16 20 -3
20 26 0 68 -40 68 -65 0 -41 -29 -95 -58 -106 -15 -6 -67 -17 -117 -25 -49 -8
-105 -16 -122 -19 -25 -5 -33 -2 -33 10 0 24 -44 19 -55 -7 -6 -12 -27 -27
-50 -35 -64 -21 -68 -23 -63 -29 3 -2 23 -1 45 4 l39 9 -24 -60 c-13 -33 -35
-115 -48 -181 -13 -67 -34 -152 -45 -189 -23 -74 -19 -96 11 -57 21 28 41 96
65 220 20 103 40 170 71 231 l23 47 68 7 c99 10 265 43 277 55 15 15 32 13 80
-10 42 -19 158 -140 251 -263 l37 -48 -62 -126 c-66 -137 -77 -172 -62 -199 9
-16 10 -16 16 4 5 16 15 22 35 22 65 0 239 -81 265 -123 9 -15 5 -24 -26 -52
-47 -44 -106 -60 -155 -44 -64 21 -203 169 -322 344 l-61 89 6 88 c5 63 4 88
-5 88 -6 0 -11 -3 -11 -7 0 -5 -18 -93 -40 -196 -44 -210 -88 -351 -149 -477
-22 -47 -41 -88 -41 -92 0 -5 8 -8 18 -8 14 0 30 24 60 88 54 114 77 180 116
336 l33 128 48 -68 c122 -173 264 -326 320 -344 60 -20 139 -9 183 27 49 39
75 79 166 255 53 103 76 158 76 183 0 21 9 48 21 65 20 26 21 32 9 60 -11 26
-10 37 4 75 10 24 15 54 11 65 -5 15 2 31 27 58 18 20 40 51 47 69 9 22 33 44
80 72 82 48 99 66 84 89 -15 25 -46 26 -92 3 -22 -12 -43 -21 -47 -21 -3 0 17
25 46 56 39 43 50 63 48 83 -5 45 -46 40 -107 -15 -28 -26 -54 -44 -57 -42 -2
3 12 39 32 81 23 50 33 83 29 96 -7 22 -46 38 -65 26 -7 -4 -31 -46 -54 -94
l-41 -86 -3 94 c-3 101 -11 121 -47 121 -35 0 -42 -18 -48 -116 -5 -88 -23
-174 -36 -174 -4 0 -23 20 -44 44 -39 48 -87 67 -112 46 -22 -18 -18 -34 15
-70 16 -17 35 -51 41 -73 6 -23 19 -61 30 -84 18 -41 18 -43 -1 -87 -14 -31
-29 -47 -50 -55 -22 -7 -30 -16 -30 -34 0 -16 -7 -26 -20 -30 -11 -3 -24 -16
-29 -29 -5 -12 -13 -34 -18 -47 -9 -23 -12 -21 -77 60 -109 136 -192 216 -239
232 -32 11 -41 19 -39 33 15 84 15 89 -20 123 -32 31 -32 33 -13 43 33 19 116
101 145 143 15 22 35 63 45 92 15 43 23 52 48 57 77 15 176 175 185 297 5 79
-10 114 -58 130 l-28 10 25 92 c16 58 27 131 30 198 5 103 5 108 -29 192 -34
84 -34 86 -14 90 19 3 15 9 -29 53 -70 69 -250 203 -310 230 -49 23 -156 45
-205 43 -14 -1 -49 -5 -78 -10z m-145 -408 c207 -41 200 -40 407 -56 204 -16
228 -24 245 -78 6 -18 10 -68 10 -112 -1 -44 2 -113 6 -154 l8 -74 -29 7
c-175 39 -400 54 -425 29 -21 -21 -83 -16 -104 7 -35 38 -234 80 -382 80 l-81
0 13 43 c7 23 24 62 38 87 13 25 30 71 36 102 14 64 45 117 81 135 31 16 5 18
177 -16z m-429 -383 c7 -7 12 -19 12 -27 0 -11 -4 -11 -19 3 -23 21 -49 12
-30 -10 7 -9 8 -14 1 -14 -37 0 -11 -211 31 -253 21 -21 34 -57 21 -57 -23 0
-88 133 -81 165 2 14 0 22 -4 19 -13 -8 -11 87 2 127 11 31 34 59 49 59 3 0
11 -5 18 -12z m179 -49 c-20 -17 -37 -39 -37 -49 0 -20 44 -61 94 -87 42 -23
160 -23 203 -1 l33 16 -16 -29 c-21 -41 -56 -52 -144 -46 -90 7 -139 20 -174
48 -23 18 -26 27 -26 84 0 60 2 65 28 79 15 8 38 15 52 16 23 0 23 -2 -13 -31z
m80 -44 c-1 -45 26 -75 69 -75 36 0 74 37 74 71 0 26 15 24 39 -7 32 -41 26
-52 -35 -70 -46 -13 -67 -14 -111 -5 -92 18 -137 68 -93 103 37 30 58 24 57
-17z m78 15 c-3 -5 -13 -10 -21 -10 -8 0 -14 5 -14 10 0 6 9 10 21 10 11 0 17
-4 14 -10z m679 -54 c44 -18 51 -42 31 -109 -19 -65 -39 -77 -128 -77 -68 1
-170 22 -192 40 -12 10 -48 70 -42 70 1 0 29 -14 61 -30 80 -41 167 -42 232
-4 51 30 55 49 18 93 -29 35 -27 37 20 17z m-244 -30 c0 -85 111 -100 135 -18
10 35 29 41 57 15 25 -22 23 -38 -8 -62 -54 -43 -213 -16 -248 41 -12 21 17
58 46 58 14 0 18 -8 18 -34z m70 24 c0 -5 -7 -10 -15 -10 -8 0 -15 5 -15 10 0
6 7 10 15 10 8 0 15 -4 15 -10z m373 -15 c40 -30 13 -170 -48 -255 -57 -77
-108 -115 -89 -66 4 10 18 22 31 27 13 5 30 22 37 39 7 17 15 28 17 25 12 -11
51 127 46 160 -3 19 -2 35 4 35 5 0 9 5 9 11 0 7 -11 9 -30 6 -32 -7 -38 1
-18 21 15 15 19 15 41 -3z m-598 -22 c13 -12 16 -27 12 -57 -6 -46 1 -96 14
-96 5 0 9 7 9 15 0 12 4 13 18 5 14 -8 66 -30 82 -35 49 -14 168 -26 222 -23
60 3 73 7 91 28 l20 25 -8 -25 c-48 -163 -93 -279 -126 -329 -35 -52 -109
-120 -163 -148 -20 -11 -80 0 -103 19 -7 5 -16 7 -21 4 -5 -3 -22 8 -37 24
-15 16 -33 26 -38 23 -6 -4 -8 5 -4 25 6 30 6 30 -46 37 -29 3 -65 8 -80 11
-26 5 -27 4 -21 -22 4 -17 3 -25 -3 -21 -6 4 -20 -4 -32 -17 -18 -20 -32 -23
-95 -24 -69 -2 -74 0 -105 30 -93 91 -126 178 -140 364 -15 189 -15 185 8 148
29 -47 91 -65 248 -71 112 -5 136 -3 158 11 14 9 25 24 25 34 0 9 9 32 20 50
23 37 67 44 95 15z m935 -581 c3 -61 8 -114 12 -118 10 -10 48 25 59 54 5 14
14 20 21 16 7 -4 8 -3 4 5 -7 11 36 115 53 126 25 15 17 -21 -24 -108 -46 -97
-53 -121 -35 -132 14 -8 41 10 110 74 30 27 58 50 63 51 14 0 7 -17 -15 -37
-13 -11 -44 -43 -70 -71 -81 -85 -57 -108 54 -54 96 47 108 34 17 -17 -66 -38
-80 -50 -105 -98 -16 -31 -38 -62 -50 -70 -20 -12 -28 -11 -83 17 -33 17 -73
32 -88 33 -37 3 -80 67 -89 131 -5 36 -16 59 -42 88 -19 21 -31 38 -28 38 19
0 65 -32 80 -55 9 -14 36 -39 59 -56 48 -35 66 -62 67 -101 0 -29 17 -38 26
-14 9 23 -14 91 -40 115 -23 22 -23 24 -9 69 7 26 16 89 20 140 9 130 27 116
33 -26z m-1382 -5 c26 -27 30 -36 20 -44 -23 -18 -47 -11 -78 24 -54 59 2 78
58 20z m161 -127 c6 0 11 -4 11 -8 0 -14 133 -42 199 -42 78 0 81 -20 7 -43
-30 -9 -79 -28 -108 -42 -59 -29 -91 -27 -109 8 -7 12 -41 51 -75 86 l-63 64
22 17 c21 17 23 17 64 -11 23 -16 46 -29 52 -29z m435 -9 c8 -13 -70 -45 -91
-36 -14 5 -10 9 20 20 21 7 41 16 44 19 9 9 21 7 27 -3z m781 -253 c69 -34 79
-53 55 -106 -18 -40 -19 -46 -4 -74 15 -28 14 -31 -5 -52 -14 -15 -21 -36 -21
-64 0 -44 -16 -92 -42 -126 -15 -19 -16 -19 -49 7 -49 37 -154 85 -216 97 -52
11 -53 11 -40 38 7 15 23 50 35 77 35 78 37 79 78 92 21 6 31 12 22 12 -11 1
-18 9 -18 21 0 16 7 20 30 20 17 0 29 3 28 8 -1 4 4 24 12 45 14 37 17 39 51
34 20 -3 58 -15 84 -29z m-1094 -11 c-10 -9 -11 -8 -5 6 3 10 9 15 12 12 3 -3
0 -11 -7 -18z m-221 -15 c0 -5 -7 -17 -15 -28 -14 -18 -14 -17 -4 9 12 27 19
34 19 19z m201 -29 c-12 -20 -14 -14 -5 12 4 9 9 14 11 11 3 -2 0 -13 -6 -23z
m-251 -63 c-6 -11 -13 -20 -16 -20 -2 0 0 9 6 20 6 11 13 20 16 20 2 0 0 -9
-6 -20z m224 -24 c-3 -15 -8 -25 -11 -23 -2 3 -1 17 3 31 3 15 8 25 11 23 2
-3 1 -17 -3 -31z m-260 -31 c-9 -14 -18 -25 -21 -25 -5 0 5 18 20 38 17 22 18
13 1 -13z m243 -37 c-3 -8 -6 -5 -6 6 -1 11 2 17 5 13 3 -3 4 -12 1 -19z
m-293 -38 c-15 -22 -29 -40 -31 -40 -5 0 3 15 29 53 30 43 31 32 2 -13z m283
-22 c-3 -7 -5 -2 -5 12 0 14 2 19 5 13 2 -7 2 -19 0 -25z m-334 -63 c-9 -19
-18 -33 -21 -31 -4 5 26 66 33 66 3 0 -3 -16 -12 -35z m324 13 c-3 -8 -6 -5
-6 6 -1 11 2 17 5 13 3 -3 4 -12 1 -19z m-10 -40 c-3 -8 -6 -5 -6 6 -1 11 2
17 5 13 3 -3 4 -12 1 -19z m-17 -55 c-11 -17 -11 -17 -6 0 3 10 6 24 7 30 0 9
2 9 5 0 3 -7 0 -20 -6 -30z m943 -7 c66 -24 154 -74 176 -100 12 -15 5 -46
-11 -46 -5 0 -24 11 -41 24 -50 38 -157 85 -209 92 -49 7 -53 10 -42 38 9 22
47 20 127 -8z"/>
<path d="M411 2250 c-39 -9 -77 -35 -105 -73 -20 -28 -16 -48 6 -29 7 5 39 18
71 27 56 16 60 16 133 -6 41 -12 77 -26 80 -31 7 -12 42 -10 49 3 13 20 -6 59
-38 76 -73 39 -129 49 -196 33z"/>
<path d="M875 2183 c-11 -3 -25 -9 -31 -14 -15 -13 -24 -58 -12 -65 5 -3 39 0
77 7 87 15 154 0 217 -47 32 -24 44 -30 44 -18 0 40 -48 98 -107 128 -31 15
-140 21 -188 9z"/>
<path d="M550 1680 c-19 -35 -9 -74 20 -79 14 -1 38 -12 54 -24 27 -19 33 -19
95 -7 76 15 91 24 91 56 0 34 -17 38 -23 6 -5 -25 -9 -27 -45 -24 -22 2 -42 0
-46 -6 -8 -13 -57 -2 -63 14 -3 8 -20 14 -40 14 -35 0 -35 0 -29 35 8 39 2 45
-14 15z"/>
<path d="M242 1670 c3 -9 14 -51 24 -95 13 -56 20 -72 22 -52 5 41 -17 134
-35 149 -14 11 -16 11 -11 -2z"/>
<path d="M1076 1554 c-22 -23 -62 -121 -53 -130 2 -2 22 32 45 76 22 44 40 80
38 80 -2 0 -15 -12 -30 -26z"/>
<path d="M417 1523 c-4 -3 -7 -14 -7 -22 0 -19 114 -54 232 -72 79 -12 243 -5
253 11 3 4 -1 13 -8 19 -10 8 -29 7 -70 -1 -94 -20 -309 15 -358 58 -17 15
-32 18 -42 7z"/>
<path d="M1611 836 c2 -2 15 -9 29 -15 24 -11 24 -11 6 3 -16 13 -49 24 -35
12z"/>
<path d="M2510 2775 c0 -15 19 -173 25 -212 9 -49 21 -40 21 13 -1 34 4 49 17
58 25 15 47 -16 47 -66 0 -21 5 -38 10 -38 18 0 11 83 -9 109 -15 19 -24 23
-49 18 -30 -6 -30 -6 -36 46 -6 45 -25 100 -26 72z"/>
<path d="M2702 2654 c-26 -18 -31 -77 -8 -100 18 -18 65 -18 89 0 26 20 20 27
-10 11 -29 -15 -62 -11 -75 9 -8 13 10 26 38 26 11 0 29 7 40 15 19 15 19 15
-5 35 -28 24 -40 25 -69 4z m63 -15 c10 -15 3 -19 -40 -26 -36 -6 -37 -5 -26
16 12 22 55 29 66 10z"/>
<path d="M2830 2625 c0 -73 50 -121 88 -83 8 8 6 -5 -4 -35 -17 -51 -51 -82
-78 -71 -9 3 -16 1 -16 -5 0 -6 13 -11 28 -11 67 0 107 109 83 228 -1 1 -5 2
-10 2 -4 0 -6 -11 -3 -25 7 -37 -5 -72 -28 -78 -25 -6 -40 18 -40 67 0 19 -4
38 -10 41 -6 4 -10 -8 -10 -30z"/>
<path d="M2990 2540 c0 -5 5 -10 10 -10 6 0 10 5 10 10 0 6 -4 10 -10 10 -5 0
-10 -4 -10 -10z"/>
<path d="M0 309 c0 -5 5 -7 10 -4 6 4 27 -11 48 -32 20 -21 46 -45 57 -53 11
-8 -5 12 -35 43 -51 54 -80 70 -80 46z"/>
<path d="M320 66 c0 -3 9 -10 20 -16 11 -6 20 -8 20 -6 0 3 -9 10 -20 16 -11
6 -20 8 -20 6z"/>
<path d="M381 23 c7 -10 15 -20 16 -22 2 -2 3 3 3 11 0 9 -7 19 -16 22 -15 6
-15 4 -3 -11z"/>
</g>
</svg>
